<svg width="462" height="92" viewBox="0 0 462 92" fill="none" xmlns="http://www.w3.org/2000/svg">
<path d="M47.525 72.4C44.825 72.4 42.125 72 39.525 71.3L17.125 64.6V79.9C17.125 82.7 18.925 85.1 21.625 85.9L31.425 88.8C42.225 92 53.625 92 64.425 88.8L74.225 85.9C76.925 85.1 78.725 82.7 78.725 79.9V64.4L55.525 71.3C52.925 72.1 50.225 72.4 47.525 72.4Z" fill="black"/>
<path d="M47.9991 0C36.9715 0 28 8.97279 28 20.0007C28 30.6161 46.1456 55.4173 46.9182 56.4675L47.6392 57.4488C47.7236 57.5642 47.8579 57.6316 47.9991 57.6316C48.1426 57.6316 48.276 57.5642 48.3612 57.4488L49.0818 56.4675C49.8549 55.4173 68 30.6161 68 20.0007C68 8.97279 59.0271 0 47.9991 0ZM47.9991 12.8365C51.9504 12.8365 55.1633 16.0496 55.1633 20.0007C55.1633 23.9498 51.9502 27.165 47.9991 27.165C44.0502 27.165 40.8349 23.9498 40.8349 20.0007C40.8349 16.0496 44.0501 12.8365 47.9991 12.8365Z" fill="transparent" stroke-width="2px" stroke="black"/>
<path d="M32.8297 38.4524C38.8525 49.1409 46.2352 59.2298 46.7559 59.9376L47.5851 61.0661C47.6821 61.1988 47.8365 61.2763 47.999 61.2763C48.164 61.2763 48.3174 61.1988 48.4154 61.0661L49.2441 59.9376C49.7609 59.2355 57.0279 49.3045 63.023 38.7133L93.025 47.6C95.725 48.4 95.725 52.2 93.125 53.1L90.925 53.8V63.7C91.625 64.1 92.125 64.8 92.125 65.6V68C92.125 68.9 91.625 69.6 90.825 70L92.925 74.9C93.125 75.6 92.725 76.3 92.025 76.4L89.825 76.6H88.525L86.325 76.4C85.525 76.3 85.125 75.6 85.425 74.9L87.525 70C86.725 69.7 86.225 68.9 86.225 68V65.6C86.225 64.8 86.725 64.1 87.425 63.7V54.8L53.625 64.8C49.625 66 45.425 66 41.525 64.8L2.025 53.1C-0.675 52.3 -0.675 48.4 2.025 47.6L32.8297 38.4524Z" fill="black"/>
<path d="M132.688 76.975C129.912 76.975 127.225 76.55 124.625 75.7C122.025 74.825 119.75 73.6 117.8 72.025C115.875 70.425 114.525 68.5125 113.75 66.2875L117.537 64.8625C118.137 66.5625 119.225 68.025 120.8 69.25C122.4 70.45 124.237 71.3625 126.312 71.9875C128.413 72.6125 130.538 72.925 132.688 72.925C135.237 72.925 137.625 72.4875 139.85 71.6125C142.075 70.7375 143.875 69.525 145.25 67.975C146.625 66.4 147.312 64.5375 147.312 62.3875C147.312 60.2375 146.6 58.475 145.175 57.1C143.75 55.7 141.913 54.6 139.663 53.8C137.438 52.975 135.112 52.3375 132.688 51.8875C129.138 51.2625 125.962 50.4375 123.162 49.4125C120.362 48.3625 118.138 46.8875 116.488 44.9875C114.863 43.0875 114.05 40.5375 114.05 37.3375C114.05 34.3625 114.912 31.7875 116.637 29.6125C118.387 27.4375 120.675 25.75 123.5 24.55C126.325 23.35 129.388 22.75 132.688 22.75C135.362 22.75 137.987 23.175 140.562 24.025C143.137 24.85 145.412 26.0625 147.387 27.6625C149.362 29.2625 150.788 31.2125 151.663 33.5125L147.8 34.9C147.2 33.175 146.113 31.7125 144.538 30.5125C142.963 29.3125 141.125 28.4 139.025 27.775C136.95 27.15 134.838 26.8375 132.688 26.8375C130.113 26.8125 127.713 27.25 125.488 28.15C123.288 29.025 121.5 30.25 120.125 31.825C118.775 33.4 118.1 35.2375 118.1 37.3375C118.1 39.7625 118.737 41.6375 120.012 42.9625C121.287 44.2875 123.025 45.2875 125.225 45.9625C127.425 46.6125 129.912 47.2 132.688 47.725C135.988 48.3 139.05 49.1875 141.875 50.3875C144.725 51.5625 147.013 53.1375 148.738 55.1125C150.488 57.0625 151.363 59.4875 151.363 62.3875C151.363 65.3375 150.488 67.9125 148.738 70.1125C147.013 72.2875 144.738 73.975 141.913 75.175C139.088 76.375 136.013 76.975 132.688 76.975Z" fill="black"/>
<path d="M187.48 67.1875L191.08 69.1375C189.38 71.5125 187.217 73.4125 184.592 74.8375C181.992 76.2625 179.167 76.975 176.117 76.975C172.667 76.975 169.517 76.0875 166.667 74.3125C163.842 72.5375 161.58 70.1625 159.88 67.1875C158.205 64.1875 157.367 60.875 157.367 57.25C157.367 54.5 157.855 51.9375 158.83 49.5625C159.805 47.1625 161.142 45.0625 162.842 43.2625C164.567 41.4375 166.567 40.0125 168.842 38.9875C171.117 37.9625 173.542 37.45 176.117 37.45C179.167 37.45 181.992 38.1625 184.592 39.5875C187.217 41.0125 189.38 42.925 191.08 45.325L187.48 47.2375C186.055 45.3875 184.33 43.975 182.305 43C180.28 42 178.217 41.5 176.117 41.5C173.367 41.5 170.88 42.225 168.655 43.675C166.43 45.1 164.667 47.0125 163.367 49.4125C162.067 51.7875 161.417 54.4 161.417 57.25C161.417 60.125 162.08 62.75 163.405 65.125C164.73 67.5 166.505 69.4 168.73 70.825C170.955 72.225 173.417 72.925 176.117 72.925C178.392 72.925 180.53 72.3875 182.53 71.3125C184.53 70.2375 186.18 68.8625 187.48 67.1875Z" fill="black"/>
<path d="M229.732 52.9375V76H225.682V53.575C225.682 51.35 225.144 49.325 224.069 47.5C222.994 45.675 221.544 44.225 219.719 43.15C217.894 42.075 215.869 41.5375 213.644 41.5375C211.444 41.5375 209.432 42.075 207.607 43.15C205.782 44.225 204.319 45.675 203.219 47.5C202.144 49.325 201.607 51.35 201.607 53.575V76H197.557V19.75H201.607V44.2375C202.957 42.1625 204.744 40.5125 206.969 39.2875C209.194 38.0625 211.619 37.45 214.244 37.45C217.119 37.45 219.719 38.15 222.044 39.55C224.394 40.925 226.257 42.7875 227.632 45.1375C229.032 47.4875 229.732 50.0875 229.732 52.9375Z" fill="black"/>
<path d="M253.021 76.975C249.571 76.975 246.421 76.0875 243.571 74.3125C240.746 72.5375 238.484 70.1625 236.784 67.1875C235.109 64.1875 234.271 60.875 234.271 57.25C234.271 54.5 234.759 51.9375 235.734 49.5625C236.709 47.1625 238.046 45.0625 239.746 43.2625C241.471 41.4375 243.471 40.0125 245.746 38.9875C248.021 37.9625 250.446 37.45 253.021 37.45C256.471 37.45 259.609 38.3375 262.434 40.1125C265.284 41.8875 267.546 44.275 269.221 47.275C270.921 50.275 271.771 53.6 271.771 57.25C271.771 59.975 271.284 62.525 270.309 64.9C269.334 67.275 267.984 69.375 266.259 71.2C264.559 73 262.571 74.4125 260.296 75.4375C258.046 76.4625 255.621 76.975 253.021 76.975ZM253.021 72.925C255.796 72.925 258.284 72.2 260.484 70.75C262.709 69.3 264.471 67.3875 265.771 65.0125C267.071 62.6375 267.721 60.05 267.721 57.25C267.721 54.425 267.071 51.8125 265.771 49.4125C264.471 47.0125 262.709 45.1 260.484 43.675C258.259 42.225 255.771 41.5 253.021 41.5C250.246 41.5 247.746 42.225 245.521 43.675C243.296 45.125 241.534 47.05 240.234 49.45C238.959 51.825 238.321 54.425 238.321 57.25C238.321 60.175 238.984 62.825 240.309 65.2C241.659 67.55 243.446 69.425 245.671 70.825C247.896 72.225 250.346 72.925 253.021 72.925Z" fill="black"/>
<path d="M294.257 76.975C290.807 76.975 287.657 76.0875 284.807 74.3125C281.982 72.5375 279.719 70.1625 278.019 67.1875C276.344 64.1875 275.507 60.875 275.507 57.25C275.507 54.5 275.994 51.9375 276.969 49.5625C277.944 47.1625 279.282 45.0625 280.982 43.2625C282.707 41.4375 284.707 40.0125 286.982 38.9875C289.257 37.9625 291.682 37.45 294.257 37.45C297.707 37.45 300.844 38.3375 303.669 40.1125C306.519 41.8875 308.782 44.275 310.457 47.275C312.157 50.275 313.007 53.6 313.007 57.25C313.007 59.975 312.519 62.525 311.544 64.9C310.569 67.275 309.219 69.375 307.494 71.2C305.794 73 303.807 74.4125 301.532 75.4375C299.282 76.4625 296.857 76.975 294.257 76.975ZM294.257 72.925C297.032 72.925 299.519 72.2 301.719 70.75C303.944 69.3 305.707 67.3875 307.007 65.0125C308.307 62.6375 308.957 60.05 308.957 57.25C308.957 54.425 308.307 51.8125 307.007 49.4125C305.707 47.0125 303.944 45.1 301.719 43.675C299.494 42.225 297.007 41.5 294.257 41.5C291.482 41.5 288.982 42.225 286.757 43.675C284.532 45.125 282.769 47.05 281.469 49.45C280.194 51.825 279.557 54.425 279.557 57.25C279.557 60.175 280.219 62.825 281.544 65.2C282.894 67.55 284.682 69.425 286.907 70.825C289.132 72.225 291.582 72.925 294.257 72.925Z" fill="black"/>
<path d="M319.285 76V19.75H323.335V76H319.285Z" fill="black"/>
<path d="M332.322 76V23.5H351.072C353.922 23.5 356.497 24.2125 358.797 25.6375C361.122 27.0625 362.96 28.975 364.31 31.375C365.66 33.775 366.335 36.4125 366.335 39.2875C366.335 42.2375 365.635 44.9125 364.235 47.3125C362.86 49.6875 361.01 51.5875 358.685 53.0125C356.36 54.4125 353.822 55.1125 351.072 55.1125H341.472V76H332.322ZM341.472 45.9625H350.097C351.397 45.9625 352.585 45.6375 353.66 44.9875C354.735 44.3375 355.585 43.4625 356.21 42.3625C356.86 41.2625 357.185 40.0375 357.185 38.6875C357.185 37.3125 356.86 36.075 356.21 34.975C355.585 33.875 354.735 33 353.66 32.35C352.585 31.7 351.397 31.375 350.097 31.375H341.472V45.9625Z" fill="black"/>
<path d="M387.128 76.975C383.678 76.975 380.528 76.0875 377.678 74.3125C374.853 72.5375 372.59 70.1625 370.89 67.1875C369.215 64.1875 368.378 60.875 368.378 57.25C368.378 54.5 368.865 51.9375 369.84 49.5625C370.815 47.1625 372.153 45.0625 373.853 43.2625C375.578 41.4375 377.578 40.0125 379.853 38.9875C382.128 37.9625 384.553 37.45 387.128 37.45C390.578 37.45 393.715 38.3375 396.54 40.1125C399.39 41.8875 401.653 44.275 403.328 47.275C405.028 50.275 405.878 53.6 405.878 57.25C405.878 59.975 405.39 62.525 404.415 64.9C403.44 67.275 402.09 69.375 400.365 71.2C398.665 73 396.678 74.4125 394.403 75.4375C392.153 76.4625 389.728 76.975 387.128 76.975ZM387.128 67.825C388.953 67.825 390.59 67.3375 392.04 66.3625C393.49 65.3875 394.628 64.1 395.453 62.5C396.303 60.9 396.728 59.15 396.728 57.25C396.728 55.3 396.29 53.525 395.415 51.925C394.565 50.3 393.403 49.0125 391.928 48.0625C390.478 47.0875 388.878 46.6 387.128 46.6C385.328 46.6 383.703 47.0875 382.253 48.0625C380.803 49.0375 379.653 50.3375 378.803 51.9625C377.953 53.5875 377.528 55.35 377.528 57.25C377.528 59.225 377.965 61.0125 378.84 62.6125C379.715 64.2125 380.878 65.4875 382.328 66.4375C383.803 67.3625 385.403 67.825 387.128 67.825Z" fill="black"/>
<path d="M428.363 76.975C424.913 76.975 421.763 76.0875 418.913 74.3125C416.088 72.5375 413.826 70.1625 412.126 67.1875C410.451 64.1875 409.613 60.875 409.613 57.25C409.613 54.5 410.101 51.9375 411.076 49.5625C412.051 47.1625 413.388 45.0625 415.088 43.2625C416.813 41.4375 418.813 40.0125 421.088 38.9875C423.363 37.9625 425.788 37.45 428.363 37.45C431.813 37.45 434.951 38.3375 437.776 40.1125C440.626 41.8875 442.888 44.275 444.563 47.275C446.263 50.275 447.113 53.6 447.113 57.25C447.113 59.975 446.626 62.525 445.651 64.9C444.676 67.275 443.326 69.375 441.601 71.2C439.901 73 437.913 74.4125 435.638 75.4375C433.388 76.4625 430.963 76.975 428.363 76.975ZM428.363 67.825C430.188 67.825 431.826 67.3375 433.276 66.3625C434.726 65.3875 435.863 64.1 436.688 62.5C437.538 60.9 437.963 59.15 437.963 57.25C437.963 55.3 437.526 53.525 436.651 51.925C435.801 50.3 434.638 49.0125 433.163 48.0625C431.713 47.0875 430.113 46.6 428.363 46.6C426.563 46.6 424.938 47.0875 423.488 48.0625C422.038 49.0375 420.888 50.3375 420.038 51.9625C419.188 53.5875 418.763 55.35 418.763 57.25C418.763 59.225 419.201 61.0125 420.076 62.6125C420.951 64.2125 422.113 65.4875 423.563 66.4375C425.038 67.3625 426.638 67.825 428.363 67.825Z" fill="black"/>
<path d="M452.366 76V19.75H461.516V76H452.366Z" fill="black"/>
</svg>
